<?xml version="1.0" ?><svg viewBox="0 0 256 256" xmlns="http://www.w3.org/2000/svg"><title/><path d="M75.584,144.726A36.217,36.217,0,1,0,37.3,203.115a5.793,5.793,0,0,1,3.422,2.913l7.656,15.226,7.656-15.226a5.8,5.8,0,0,1,3.422-2.913,36.217,36.217,0,0,0,16.126-58.389Z" fill="#13bf6d"/><circle cx="48.38" cy="241.773" fill="#f0c020" r="9.75"/><path d="M212.251,58.744a36.217,36.217,0,1,0-38.282,58.389,5.791,5.791,0,0,1,3.421,2.913l7.657,15.226,7.656-15.226a5.706,5.706,0,0,1,2.564-2.557c1.245-.655,10.262-2.613,18-12.138A36.36,36.36,0,0,0,212.251,58.744Z" fill="#13bf6d"/><circle cx="185.047" cy="155.79" fill="#f0c020" r="9.75"/><path d="M123.267,16.786A36.217,36.217,0,1,0,84.985,75.175a5.785,5.785,0,0,1,3.421,2.913l7.657,15.225,7.656-15.225a5.791,5.791,0,0,1,3.422-2.913,36.217,36.217,0,0,0,16.126-58.389Z" fill="#13bf6d"/><circle cx="96.063" cy="113.832" fill="#f0c020" r="9.75"/><path d="M19.561,177.355c-.105-.351-.2-.7-.3-1.051a2.5,2.5,0,0,1,4.838-1.266c.076.291.158.583.246.874a2.5,2.5,0,0,1-4.787,1.443Zm1.09-9.113a2.5,2.5,0,0,1-2.224-2.749,30.239,30.239,0,0,1,29-26.944,29.9,29.9,0,0,1,22.233,8.8,2.5,2.5,0,1,1-3.536,3.535,24.937,24.937,0,0,0-18.542-7.338A25.217,25.217,0,0,0,23.4,166.018,2.5,2.5,0,0,1,20.651,168.242Z" fill="#76ffba"/><path d="M156.228,91.372c-.105-.35-.205-.7-.3-1.05a2.5,2.5,0,0,1,4.838-1.267c.076.292.158.583.246.875a2.5,2.5,0,1,1-4.787,1.442Zm1.09-9.113a2.5,2.5,0,0,1-2.224-2.749,30.237,30.237,0,0,1,29-26.943,29.835,29.835,0,0,1,22.234,8.8A2.5,2.5,0,1,1,202.8,64.9a24.87,24.87,0,0,0-18.542-7.338,25.215,25.215,0,0,0-24.186,22.471A2.5,2.5,0,0,1,157.318,82.259Z" fill="#76ffba"/><path d="M67.244,49.414q-.159-.525-.3-1.051A2.5,2.5,0,0,1,71.785,47.1c.076.291.158.583.246.874a2.5,2.5,0,0,1-4.787,1.443ZM68.335,40.3a2.5,2.5,0,0,1-2.224-2.749,30.236,30.236,0,0,1,29-26.943,29.869,29.869,0,0,1,22.232,8.8,2.5,2.5,0,1,1-3.535,3.535,24.921,24.921,0,0,0-18.542-7.338,25.214,25.214,0,0,0-24.185,22.47A2.5,2.5,0,0,1,68.335,40.3Z" fill="#76ffba"/><path d="M135.789,158.271h37.263a12.25,12.25,0,0,0,23.993,0h25.744a23.5,23.5,0,1,0,0-47H211.1a39.709,39.709,0,0,0,4.112-4.341,38.884,38.884,0,0,0-1.081-49.84,2.577,2.577,0,0,0-3.53-.22,2.5,2.5,0,0,0-.22,3.53,33.858,33.858,0,0,1,.94,43.38c-7.3,8.982-15.558,10.624-17.21,11.491l-.01.009a8.116,8.116,0,0,0-3.63,3.65l-5.42,10.781-5.42-10.79a8.4,8.4,0,0,0-4.9-4.17,33.721,33.721,0,0,1,20.21-64.341,2.524,2.524,0,0,0,3.12-1.659,2.5,2.5,0,0,0-1.66-3.121,38.723,38.723,0,0,0-41.52,61.291,39.988,39.988,0,0,0,4.122,4.35H108.035a12.242,12.242,0,1,0,.028,5h57.811a38.242,38.242,0,0,0,7.335,3.239,3.373,3.373,0,0,1,1.95,1.65l7.649,15.23a2.5,2.5,0,0,0,4.471,0l7.659-15.219a3.235,3.235,0,0,1,1.44-1.44l.05-.031a43.63,43.63,0,0,0,7.8-3.429h18.563a18.5,18.5,0,1,1,0,37H197.034a12.248,12.248,0,0,0-23.972,0H135.789a22.5,22.5,0,1,0,0,45h43.729a20.5,20.5,0,0,1,0,41H60.37a12.25,12.25,0,1,0,0,5H179.518a25.5,25.5,0,0,0,0-51H135.789a17.5,17.5,0,1,1,0-35ZM96.058,121.08a7.25,7.25,0,1,1,7.25-7.25A7.281,7.281,0,0,1,96.058,121.08Zm88.99,27.461a7.25,7.25,0,1,1-7.25,7.25A7.278,7.278,0,0,1,185.048,148.541ZM48.378,249.021a7.25,7.25,0,1,1,7.25-7.25A7.275,7.275,0,0,1,48.378,249.021Z"/><path d="M69.4,136.11a2.563,2.563,0,0,0-3.46.74,2.5,2.5,0,1,0,3.46-.74Z"/><path d="M19.3,143.07A38.726,38.726,0,0,0,36.539,205.5a3.252,3.252,0,0,1,1.95,1.649l7.659,15.23a2.509,2.509,0,0,0,4.471,0l7.649-15.23a3.272,3.272,0,0,1,1.95-1.649A38.727,38.727,0,0,0,77.459,143.07a2.578,2.578,0,0,0-3.531-.22,2.508,2.508,0,0,0-.219,3.53,33.877,33.877,0,0,1,.95,43.38,33.379,33.379,0,0,1-15.971,10.971,8.28,8.28,0,0,0-4.89,4.179l-5.42,10.781L42.959,204.9a8.354,8.354,0,0,0-4.9-4.169A33.429,33.429,0,0,1,22.1,189.76a33.725,33.725,0,0,1,36.17-53.37,2.5,2.5,0,1,0,1.471-4.78A38.721,38.721,0,0,0,19.3,143.07Z"/><path d="M202.608,50.87a2.494,2.494,0,0,0,.74,3.46h.01a2.483,2.483,0,0,0,3.44-.74,2.509,2.509,0,0,0-.73-3.46A2.559,2.559,0,0,0,202.608,50.87Z"/><path d="M95.675,60.461a2.5,2.5,0,0,0,2.5-2.5V54.733h.789a8.4,8.4,0,0,0,0-16.809H92.388a3.4,3.4,0,1,1,.017-6.808h6.317a4.915,4.915,0,0,1,4.054,2.332,2.473,2.473,0,0,0,3.433.7,2.527,2.527,0,0,0,.731-3.472,9.791,9.791,0,0,0-8.2-4.564h-.566V22.887a2.5,2.5,0,0,0-5,0v3.229h-.789a8.4,8.4,0,0,0,0,16.808h6.575a3.4,3.4,0,1,1-.043,6.809H92.055a4.816,4.816,0,0,1-3.65-1.777,2.5,2.5,0,1,0-3.842,3.2,9.814,9.814,0,0,0,7.474,3.577h1.138v3.228A2.5,2.5,0,0,0,95.675,60.461Z"/><path d="M66.989,15.13A38.728,38.728,0,0,0,84.218,77.561a3.266,3.266,0,0,1,1.951,1.65l7.66,15.23a2.507,2.507,0,0,0,4.469,0l7.651-15.23a3.316,3.316,0,0,1,1.949-1.65,38.716,38.716,0,0,0,17.24-62.431,2.576,2.576,0,0,0-3.53-.22,2.5,2.5,0,0,0-.23,3.52c.01,0,.01.011.01.011a33.878,33.878,0,0,1,.95,43.379,33.491,33.491,0,0,1-15.96,10.971,8.292,8.292,0,0,0-4.9,4.179l-5.42,10.781-5.42-10.79a8.308,8.308,0,0,0-4.9-4.17,33.494,33.494,0,0,1-15.96-10.98,33.716,33.716,0,0,1,36.18-53.35,2.537,2.537,0,0,0,3.12-1.67,2.511,2.511,0,0,0-1.66-3.12A38.7,38.7,0,0,0,66.989,15.13Z"/><path d="M114.358,12.37a2.5,2.5,0,0,0,2.721-4.2,2.562,2.562,0,0,0-3.46.739A2.516,2.516,0,0,0,114.358,12.37Z"/><path d="M187.947,79.882h-6.575a3.4,3.4,0,1,1,.016-6.808h6.318a4.868,4.868,0,0,1,4.006,2.259,2.5,2.5,0,1,0,4.211-2.695,9.8,9.8,0,0,0-8.2-4.564h-.564V64.846a2.5,2.5,0,0,0-5,0v3.228h-.79a8.4,8.4,0,0,0,0,16.808h6.575a3.4,3.4,0,1,1-.017,6.809h-6.89a4.817,4.817,0,0,1-3.652-1.778,2.5,2.5,0,0,0-3.842,3.2,9.819,9.819,0,0,0,7.475,3.577h1.139V99.92a2.5,2.5,0,0,0,5,0V96.691h.789a8.4,8.4,0,0,0,0-16.809Z"/><path d="M51.28,165.865H44.706a3.4,3.4,0,1,1,.016-6.809H51.04a4.869,4.869,0,0,1,4.005,2.259,2.5,2.5,0,1,0,4.211-2.695,9.8,9.8,0,0,0-8.2-4.564h-.565v-3.228a2.5,2.5,0,0,0-5,0v3.228h-.726a8.4,8.4,0,1,0-.061,16.809H51.28a3.4,3.4,0,1,1-.043,6.808H44.373a4.818,4.818,0,0,1-3.651-1.776,2.5,2.5,0,1,0-3.842,3.2,9.812,9.812,0,0,0,7.474,3.577h1.139V185.9a2.5,2.5,0,0,0,5,0v-3.228h.789a8.4,8.4,0,0,0,0-16.808Z"/></svg>